<?xml version="1.0" encoding="UTF-8" standalone="no"?>
<svg
   xmlns:dc="http://purl.org/dc/elements/1.1/"
   xmlns:cc="http://creativecommons.org/ns#"
   xmlns:rdf="http://www.w3.org/1999/02/22-rdf-syntax-ns#"
   xmlns:svg="http://www.w3.org/2000/svg"
   xmlns="http://www.w3.org/2000/svg"
   xmlns:sodipodi="http://sodipodi.sourceforge.net/DTD/sodipodi-0.dtd"
   xmlns:inkscape="http://www.inkscape.org/namespaces/inkscape"
   sodipodi:docname="1.svg"
   inkscape:version="1.0 (1.0+r73+1)"
   id="svg8"
   version="1.1"
   viewBox="0 0 600 600.00002"
   height="600"
   width="600">
  <defs
     id="defs2" />
  <sodipodi:namedview
     inkscape:window-maximized="1"
     inkscape:window-y="27"
     inkscape:window-x="67"
     inkscape:window-height="1025"
     inkscape:window-width="1853"
     units="px"
     showgrid="false"
     inkscape:document-rotation="0"
     inkscape:current-layer="layer1"
     inkscape:document-units="px"
     inkscape:cy="560"
     inkscape:cx="347.14286"
     inkscape:zoom="0.35"
     inkscape:pageshadow="2"
     inkscape:pageopacity="0.0"
     borderopacity="1.0"
     bordercolor="#666666"
     pagecolor="#ffffff"
     id="base" />
  <metadata
     id="metadata5">
    <rdf:RDF>
      <cc:Work
         rdf:about="">
        <dc:format>image/svg+xml</dc:format>
        <dc:type
           rdf:resource="http://purl.org/dc/dcmitype/StillImage" />
        <dc:title></dc:title>
      </cc:Work>
    </rdf:RDF>
  </metadata>
  <g
     id="layer1"
     inkscape:groupmode="layer"
     inkscape:label="图层 1">
    <g
       style="font-size:200px;line-height:1.25;font-family:sans-serif"
       id="text839"
       aria-label="苹">
      <path
         style="stroke-width:3.07525"
         id="path841"
         d="m 167.81379,168.0031 h 44.77617 V 114.34718 H 384.94761 V 168.0031 H 429.7238 V 114.34718 H 568.34595 V 73.025951 H 429.7238 v -51.80571 h -44.77619 v 51.80571 H 212.58996 v -51.80571 h -44.77617 v 51.80571 H 32.871844 V 114.34718 H 167.81379 Z M 573.25294,381.39331 H 321.15687 V 229.67657 H 537.67734 V 187.12188 H 64.153837 v 42.55469 H 275.76732 V 381.39331 H 27.351495 v 42.5547 H 275.76732 v 161.58448 h 45.38955 V 423.94801 H 573.25294 Z M 94.209081,258.6631 c 28.215139,36.38735 57.657009,85.72612 69.311089,116.56287 l 42.3227,-16.65185 C 192.34868,327.12066 161.68006,279.01535 133.46492,243.24474 Z M 425.43018,373.99249 c 24.5349,-30.22 54.59016,-76.4751 79.73842,-116.56285 l -46.61631,-14.1849 c -15.94768,35.77061 -46.61629,86.95959 -71.1512,117.79632 z" />
    </g>
  </g>
</svg>
