<?xml version="1.0" encoding="UTF-8" standalone="no"?>
<svg
   xmlns:dc="http://purl.org/dc/elements/1.1/"
   xmlns:cc="http://creativecommons.org/ns#"
   xmlns:rdf="http://www.w3.org/1999/02/22-rdf-syntax-ns#"
   xmlns:svg="http://www.w3.org/2000/svg"
   xmlns="http://www.w3.org/2000/svg"
   id="svg8"
   version="1.1"
   viewBox="0 0 800 800.00003"
   height="800"
   width="800">
  <defs
     id="defs2" />
  <metadata
     id="metadata5">
    <rdf:RDF>
      <cc:Work
         rdf:about="">
        <dc:format>image/svg+xml</dc:format>
        <dc:type
           rdf:resource="http://purl.org/dc/dcmitype/StillImage" />
        <dc:title></dc:title>
      </cc:Work>
    </rdf:RDF>
  </metadata>
  <g
     id="layer1">
    <g
       style="font-size:200px;line-height:1.25;font-family:sans-serif"
       id="text835"
       aria-label="苹果">
      <path
         id="path837"
         d="m 262.41139,357.4473 h 14.6 v -17.4 h 56.2 v 17.4 h 14.6 v -17.4 h 45.2 v -13.4 h -45.2 v -16.8 h -14.6 v 16.8 h -56.2 v -16.8 h -14.6 v 16.8 h -44 v 13.4 h 44 z m 132.2,69.2 h -82.2 v -49.2 h 70.6 v -13.8 h -154.4 v 13.8 h 69 v 49.2 h -81 v 13.8 h 81 v 52.4 h 14.8 v -52.4 h 82.2 z m -156.2,-39.8 c 9.2,11.8 18.8,27.8 22.6,37.8 l 13.8,-5.4 c -4.4,-10.2 -14.4,-25.8 -23.6,-37.4 z m 108,37.4 c 8,-9.8 17.8,-24.8 26,-37.8 l -15.2,-4.6 c -5.2,11.6 -15.2,28.2 -23.2,38.2 z" />
      <path
         id="path839"
         d="m 453.01139,385.4473 v -20.6 h 45 v 20.6 z m 0,-53.2 h 45 v 20.4 h -45 z m 105.8,20.4 h -45.4 v -20.4 h 45.4 z m 0,32.8 h -45.4 v -20.6 h 45.4 z m 34,43.4 v -13.8 h -79.4 v -16.8 h 61.2 v -79 h -136.6 v 79 h 60 v 16.8 h -79.4 v 13.8 h 67 c -17.6,19 -46,36.2 -72,44.6 3.2,3 8,8.8 10,12.2 26,-9.8 55.2,-28.8 74.4,-50.6 v 57.4 h 15.4 v -58.4 c 19.6,21.2 49,40.6 74.4,50.8 2.2,-3.6 6.8,-9.4 10.2,-12.4 -25.2,-8.4 -53.8,-25.2 -72.2,-43.6 z" />
    </g>
  </g>
</svg>
